<svg width="35" height="35" viewBox="0 0 35 35" fill="none" xmlns="http://www.w3.org/2000/svg">
<path d="M17.5 1.39999C8.62189 1.39999 1.39999 8.62189 1.39999 17.5C1.39999 26.3781 8.62189 33.6 17.5 33.6C26.3781 33.6 33.6 26.3781 33.6 17.5C33.6 14.308 32.6622 11.3325 31.0543 8.82792L30.0959 9.95995C31.4224 12.1678 32.2 14.742 32.2 17.5C32.2 25.6053 25.6053 32.2 17.5 32.2C9.39469 32.2 2.79999 25.6053 2.79999 17.5C2.79999 9.39469 9.39469 2.79999 17.5 2.79999C21.3101 2.79999 24.7757 4.26983 27.3902 6.65683L28.3062 5.57538C25.4467 2.98188 21.6545 1.39999 17.5 1.39999ZM30.2654 5.42773L16.7398 21.3883L11.0469 16.0781L10.0926 17.1021L16.8588 23.4131L31.3346 6.33281L30.2654 5.42773Z" fill="#999999"/>
</svg>
