<svg width="137" height="137" viewBox="0 0 137 137" fill="none" xmlns="http://www.w3.org/2000/svg">
<circle cx="68.4777" cy="68.4777" r="60.75" transform="rotate(-7.84968 68.4777 68.4777)" fill="#DCDCDC"/>
<path d="M63.4558 16.4871C59.5711 16.9203 56.3184 26.7874 57.6053 35.0097C57.9864 37.5155 59.4808 42.4982 61.5187 48.7338C55.2676 57.286 47.8683 66.1986 49.2694 76.361C50.4371 85.69 57.7646 96.7703 71.2529 94.7944C73.3237 94.4944 75.1534 93.9805 76.7493 93.3098C78.9172 99.9084 80.4746 105.137 80.8099 107.606C82.1947 117.329 69.5452 120.054 68.1616 114.546C70.8428 114.082 72.6911 111.647 72.3263 109.001C71.9536 106.298 69.4115 104.402 66.6341 104.785C65.107 104.996 63.8386 105.854 63.0602 107.03C63.0417 107.054 63.0197 107.079 63.002 107.103C62.8242 107.353 62.6851 107.641 62.5531 107.964C62.1167 109.006 61.938 110.44 62.1904 112.419C63.3134 120.564 84.6313 122.967 82.4168 106.905C82.151 104.739 80.4654 99.3824 78.1588 92.6576C92.1214 85.3179 85.4216 64.0084 71.8856 65.7699C70.8385 65.9252 69.8447 66.1865 68.9065 66.5673C67.6252 62.9667 66.386 59.4715 65.2811 56.2551C69.7205 50.5038 73.304 43.3572 71.5446 31.3392C70.3691 22.6967 66.5352 16.1651 63.4558 16.4871V16.4871ZM65.5218 24.7198C67.2503 24.3092 68.8653 25.7437 69.3589 29.3235C70.3484 35.4522 66.7814 41.4154 62.3968 47.5226C61.4983 44.6324 60.8462 42.2802 60.6153 40.8635C59.4367 31.2387 62.6406 25.4041 65.5218 24.7198ZM64.4105 57.352C65.48 60.4861 66.6232 63.7859 67.7769 67.109C59.266 71.5268 56.6906 84.5938 70.1483 88.4272C61.5068 82.9094 64.2389 74.5908 69.6279 72.464C71.9954 79.272 74.3173 85.9918 76.2474 91.8091C74.8173 92.5441 73.1057 93.0926 71.0592 93.3893C65.9373 94.0954 55.2527 92.2469 53.5511 79.9041C52.1258 69.5662 58.7127 64.3772 64.4105 57.352ZM70.8682 72.0656C71.0895 72.0212 71.3321 71.9936 71.5586 71.9704C80.8758 70.6858 86.43 84.9978 77.5942 91.0347C75.5956 85.2632 73.226 78.6561 70.8682 72.0656Z" fill="#5F5F5F" stroke="#5F5F5F" stroke-width="0.72"/>
</svg>
